<svg width="40" height="40" viewBox="0 0 40 40" fill="none" xmlns="http://www.w3.org/2000/svg">
<path d="M6.07048 16.5517L5.19007 17.4321C4.54447 18.0777 4.54447 19.1341 5.19007 19.7797L21.4649 36.0545C22.1105 36.7001 23.1669 36.7001 23.8125 36.0545L24.6929 35.1741L6.07048 16.5517Z" fill="#43434B"/>
<path d="M34.3173 23.2025L18.0425 6.92774C17.3969 6.28214 16.3405 6.28214 15.6949 6.92774L8.16846 14.4541L26.7909 33.0765L34.3173 25.5501C34.9629 24.9041 34.9629 23.8477 34.3173 23.2025ZM21.8493 16.9717L15.6473 10.7693L16.5477 9.86895L22.7501 16.0709L21.8493 16.9717Z" fill="#43434B"/>
<path d="M26.7405 9.66933V12.1177C27.6029 12.1177 28.4653 12.4461 29.1221 13.1025C29.7789 13.7593 30.1069 14.6217 30.1069 15.4841H32.5553C32.5553 13.9941 31.9881 12.5045 30.8541 11.3705C29.7201 10.2361 28.2301 9.66933 26.7405 9.66933Z" fill="#43434B"/>
<path d="M33.4405 8.78374C31.5933 6.93654 29.1669 6.01294 26.7405 6.01294V8.46134C28.5397 8.46134 30.3389 9.14614 31.7085 10.5157C33.0781 11.8853 33.7633 13.6845 33.7633 15.4837H36.2117C36.2117 13.0577 35.2877 10.6309 33.4405 8.78374Z" fill="#43434B"/>
<path d="M36.0301 6.19453C33.4689 3.63333 30.1049 2.35294 26.7405 2.35294V4.80134C29.4773 4.80134 32.2141 5.84293 34.2977 7.92653C36.3813 10.0101 37.4233 12.7469 37.4233 15.4841H39.8717C39.8717 12.1197 38.5909 8.75573 36.0301 6.19453Z" fill="#43434B"/>
</svg>