<svg width="40" height="40" viewBox="0 0 40 40" fill="none" xmlns="http://www.w3.org/2000/svg">
<path d="M30.8228 25.278H1.2608V8.2868H30.8228V25.278ZM3.18282 23.3564H28.9016V10.2084H3.18282V23.3564Z" fill="#43434B"/>
<path d="M5.58117 12.444C6.28517 11.65 6.21238 10.4352 5.41798 9.7312C4.62398 9.0272 3.40914 9.1004 2.70514 9.8944C2.00114 10.6884 2.07397 11.9032 2.86837 12.6072C3.66277 13.3112 4.87717 13.238 5.58117 12.444Z" fill="#43434B"/>
<path d="M26.5024 12.444C25.7984 11.65 25.8712 10.4352 26.6656 9.7312C27.4596 9.0272 28.6744 9.1004 29.3784 9.8944C30.0824 10.6884 30.0096 11.9032 29.2152 12.6072C28.4212 13.3112 27.2064 13.238 26.5024 12.444Z" fill="#43434B"/>
<path d="M5.58117 21.1208C6.28517 21.9148 6.21238 23.1296 5.41798 23.8336C4.62358 24.5376 3.40914 24.4644 2.70514 23.6704C2.00114 22.8764 2.07397 21.6616 2.86837 20.9576C3.66277 20.2536 4.87717 20.3268 5.58117 21.1208Z" fill="#43434B"/>
<path d="M26.5024 21.1208C25.7984 21.9148 25.8712 23.1296 26.6656 23.8336C27.4596 24.5376 28.6744 24.4644 29.3784 23.6704C30.0824 22.8764 30.0096 21.6616 29.2152 20.9576C28.4212 20.2536 27.2064 20.3268 26.5024 21.1208Z" fill="#43434B"/>
<path d="M16.042 9.69922C13.024 9.69922 10.5772 12.8704 10.5772 16.7824C10.5772 20.6944 13.024 23.8656 16.042 23.8656C19.06 23.8656 21.5068 20.6944 21.5068 16.7824C21.5068 12.8704 19.06 9.69922 16.042 9.69922ZM16.5456 20.2064V21.3472H15.4492V20.2844C14.6992 20.2508 13.972 20.0496 13.5468 19.8036L13.8824 18.4944C14.3528 18.7516 15.0128 18.9868 15.7396 18.9868C16.3776 18.9868 16.8136 18.7404 16.8136 18.2928C16.8136 17.8676 16.456 17.5992 15.628 17.3192C14.4308 16.9164 13.6136 16.3572 13.6136 15.2716C13.6136 14.2872 14.3072 13.5152 15.5048 13.2804V12.2176H16.6012V13.2024C17.3508 13.2356 17.854 13.3924 18.2236 13.5712L17.8992 14.8356C17.608 14.7124 17.0932 14.4552 16.2876 14.4552C15.5604 14.4552 15.3256 14.7684 15.3256 15.0816C15.3256 15.4508 15.7176 15.6856 16.668 16.0436C18 16.5136 18.5364 17.1292 18.5364 18.136C18.5368 19.1324 17.832 19.9824 16.5456 20.2064Z" fill="#43434B"/>
<path d="M32.032 11.5368V13.4584V26.6064H6.31366H4.39203V28.528H33.9537V11.5368H32.032Z" fill="#43434B"/>
<path d="M35.2172 14.722V16.6436V29.7916H9.49879H7.57721V31.7132H37.1392V14.722H35.2172Z" fill="#43434B"/>
</svg>
